<svg xlink="http://www.w3.org/1999/xlink" viewBox="0 0 5000 5000" xmlns="http://www.w3.org/2000/svg" style="transform: scale(1);"><defs><filter id="goo"><feGaussianBlur in="SourceGraphic" stdDeviation="25" result="blur"></feGaussianBlur><feColorMatrix in="blur" type="matrix" values="1 0 0 0 0 0 1 0 0 0 0 0 1 0 0 0 0 0 19 -9" result="good"></feColorMatrix><feComposite in="SourceGraphic" in2="goo" operator="atop"></feComposite></filter><path d="M361,311L274,375L123,250L169,152L361,311z" id="P0"></path><path d="M431,178L408,365L55,262L167,74L431,178z" id="P1"></path><path d="M309,100L406,210L250,411L140,367L309,100z" id="P2"></path><path d="M243,362L202,351L209,146L327,168L243,362z" id="P3"></path><path d="M321,198L336,266L179,302L162,250L321,198z" id="P4"></path><path d="M186,162L303,154L270,357L230,357L186,162z" id="P5"></path><path d="M327,110L390,173L173,390L91,270L327,110z" id="P6"></path><path d="M181,376L106,259L366,165L389,214L181,376z" id="P7"></path><path d="M324,259L324,264L177,269L180,222L324,259z" id="P8"></path><path d="M204,367L170,347L266,125L374,226L204,367z" id="P9"></path><path d="M197,177L239,161L323,303L217,334L197,177z" id="P10"></path><path d="M159,164L258,125L303,363L219,371L159,164z" id="P11"></path><path d="M181,376L151,355L311,120L366,165L181,376z" id="P12"></path><path d="M150,305L136,250L317,158L353,299L150,305z" id="P13"></path></defs><rect id="RECT" width="5000" height="5000" fill="#111111"></rect><g id="group" fill="#FFFFFF" filter="url(#goo)"><use x="-168" y="-67" href="#P0"></use><use x="-166" y="69" href="#P2"></use><use x="-243" y="207" href="#P6"></use><use x="-202" y="385" href="#P6"></use><use x="-209" y="484" href="#P0"></use><use x="-234" y="695" href="#P8"></use><use x="-235" y="1020" href="#P0"></use><use x="-204" y="1096" href="#P2"></use><use x="-99" y="1338" href="#P9"></use><use x="-82" y="1483" href="#P10"></use><use x="-199" y="1698" href="#P3"></use><use x="-141" y="1827" href="#P5"></use><use x="-81" y="2103" href="#P10"></use><use x="-90" y="2195" href="#P5"></use><use x="-183" y="2412" href="#P12"></use><use x="-143" y="2577" href="#P10"></use><use x="-204" y="2730" href="#P2"></use><use x="-243" y="2943" href="#P2"></use><use x="-87" y="3101" href="#P2"></use><use x="-205" y="3408" href="#P11"></use><use x="-122" y="3576" href="#P4"></use><use x="-198" y="3664" href="#P1"></use><use x="-108" y="3965" href="#P6"></use><use x="-183" y="4129" href="#P5"></use><use x="-179" y="4215" href="#P10"></use><use x="-91" y="4371" href="#P7"></use><use x="-191" y="4583" href="#P9"></use><use x="-114" y="4742" href="#P5"></use><use x="-217" y="4908" href="#P13"></use><use x="-102" y="5193" href="#P13"></use><use x="84" y="-159" href="#P6"></use><use x="91" y="-59" href="#P8"></use><use x="-18" y="209" href="#P3"></use><use x="-41" y="380" href="#P6"></use><use x="7" y="527" href="#P7"></use><use x="-6" y="798" href="#P10"></use><use x="-44" y="908" href="#P3"></use><use x="-31" y="1187" href="#P3"></use><use x="-12" y="1217" href="#P10"></use><use x="-21" y="1569" href="#P13"></use><use x="27" y="1615" href="#P6"></use><use x="68" y="1828" href="#P13"></use><use x="0" y="2011" href="#P3"></use><use x="-64" y="2160" href="#P13"></use><use x="17" y="2499" href="#P2"></use><use x="74" y="2558" href="#P11"></use><use x="-11" y="2767" href="#P3"></use><use x="0" y="2946" href="#P4"></use><use x="17" y="3116" href="#P2"></use><use x="55" y="3251" href="#P1"></use><use x="71" y="3484" href="#P5"></use><use x="32" y="3670" href="#P13"></use><use x="-6" y="3955" href="#P4"></use><use x="23" y="4145" href="#P0"></use><use x="-51" y="4185" href="#P5"></use><use x="27" y="4457" href="#P7"></use><use x="77" y="4673" href="#P1"></use><use x="-62" y="4852" href="#P8"></use><use x="-46" y="4898" href="#P11"></use><use x="45" y="5117" href="#P12"></use><use x="260" y="-217" href="#P6"></use><use x="180" y="93" href="#P13"></use><use x="197" y="127" href="#P11"></use><use x="207" y="403" href="#P2"></use><use x="213" y="650" href="#P11"></use><use x="182" y="698" href="#P2"></use><use x="231" y="1023" href="#P13"></use><use x="188" y="1197" href="#P2"></use><use x="145" y="1296" href="#P10"></use><use x="267" y="1509" href="#P1"></use><use x="180" y="1673" href="#P0"></use><use x="290" y="1786" href="#P5"></use><use x="139" y="2050" href="#P6"></use><use x="157" y="2212" href="#P7"></use><use x="299" y="2489" href="#P7"></use><use x="137" y="2542" href="#P5"></use><use x="267" y="2850" href="#P12"></use><use x="177" y="2885" href="#P8"></use><use x="175" y="3133" href="#P2"></use><use x="126" y="3271" href="#P1"></use><use x="206" y="3459" href="#P13"></use><use x="152" y="3728" href="#P2"></use><use x="280" y="3923" href="#P6"></use><use x="228" y="4015" href="#P12"></use><use x="276" y="4162" href="#P7"></use><use x="137" y="4414" href="#P7"></use><use x="165" y="4689" href="#P0"></use><use x="242" y="4746" href="#P9"></use><use x="247" y="4926" href="#P9"></use><use x="148" y="5141" href="#P8"></use><use x="447" y="-203" href="#P8"></use><use x="343" y="-52" href="#P0"></use><use x="435" y="219" href="#P2"></use><use x="479" y="450" href="#P7"></use><use x="377" y="598" href="#P2"></use><use x="407" y="821" href="#P7"></use><use x="477" y="982" href="#P1"></use><use x="457" y="1157" href="#P13"></use><use x="382" y="1267" href="#P2"></use><use x="453" y="1512" href="#P2"></use><use x="427" y="1763" href="#P3"></use><use x="367" y="1918" href="#P0"></use><use x="467" y="2126" href="#P9"></use><use x="461" y="2246" href="#P0"></use><use x="451" y="2401" href="#P8"></use><use x="337" y="2511" href="#P9"></use><use x="420" y="2756" href="#P5"></use><use x="374" y="2904" href="#P12"></use><use x="462" y="3208" href="#P4"></use><use x="346" y="3386" href="#P1"></use><use x="452" y="3432" href="#P1"></use><use x="389" y="3654" href="#P9"></use><use x="419" y="3878" href="#P4"></use><use x="347" y="3969" href="#P3"></use><use x="392" y="4219" href="#P2"></use><use x="328" y="4398" href="#P4"></use><use x="346" y="4535" href="#P1"></use><use x="396" y="4711" href="#P3"></use><use x="423" y="4986" href="#P11"></use><use x="436" y="5114" href="#P5"></use><use x="563" y="-186" href="#P11"></use><use x="631" y="27" href="#P4"></use><use x="606" y="202" href="#P0"></use><use x="556" y="349" href="#P11"></use><use x="547" y="636" href="#P7"></use><use x="663" y="714" href="#P7"></use><use x="595" y="1007" href="#P5"></use><use x="589" y="1167" href="#P11"></use><use x="500" y="1301" href="#P11"></use><use x="636" y="1418" href="#P5"></use><use x="576" y="1675" href="#P0"></use><use x="499" y="1892" href="#P4"></use><use x="521" y="2048" href="#P1"></use><use x="557" y="2201" href="#P1"></use><use x="603" y="2383" href="#P13"></use><use x="620" y="2568" href="#P11"></use><use x="603" y="2706" href="#P8"></use><use x="511" y="2988" href="#P13"></use><use x="569" y="3122" href="#P13"></use><use x="621" y="3353" href="#P3"></use><use x="488" y="3533" href="#P2"></use><use x="651" y="3775" href="#P10"></use><use x="592" y="3960" href="#P5"></use><use x="533" y="4141" href="#P8"></use><use x="569" y="4260" href="#P12"></use><use x="511" y="4418" href="#P5"></use><use x="554" y="4539" href="#P8"></use><use x="611" y="4854" href="#P10"></use><use x="542" y="5005" href="#P10"></use><use x="488" y="5145" href="#P8"></use><use x="749" y="-92" href="#P2"></use><use x="710" y="63" href="#P12"></use><use x="776" y="158" href="#P12"></use><use x="798" y="305" href="#P2"></use><use x="708" y="574" href="#P4"></use><use x="708" y="768" href="#P12"></use><use x="676" y="917" href="#P2"></use><use x="802" y="1138" href="#P3"></use><use x="682" y="1298" href="#P13"></use><use x="765" y="1447" href="#P0"></use><use x="800" y="1671" href="#P8"></use><use x="683" y="1858" href="#P12"></use><use x="841" y="2029" href="#P8"></use><use x="713" y="2167" href="#P2"></use><use x="826" y="2327" href="#P12"></use><use x="813" y="2588" href="#P2"></use><use x="718" y="2759" href="#P13"></use><use x="686" y="2911" href="#P5"></use><use x="790" y="3231" href="#P13"></use><use x="750" y="3298" href="#P9"></use><use x="666" y="3492" href="#P7"></use><use x="724" y="3666" href="#P7"></use><use x="778" y="3936" href="#P8"></use><use x="792" y="4120" href="#P5"></use><use x="791" y="4239" href="#P12"></use><use x="677" y="4417" href="#P0"></use><use x="694" y="4550" href="#P2"></use><use x="774" y="4852" href="#P1"></use><use x="678" y="4971" href="#P4"></use><use x="745" y="5131" href="#P13"></use><use x="913" y="-71" href="#P11"></use><use x="890" y="61" href="#P11"></use><use x="880" y="204" href="#P8"></use><use x="973" y="382" href="#P11"></use><use x="1033" y="650" href="#P0"></use><use x="931" y="781" href="#P5"></use><use x="856" y="901" href="#P0"></use><use x="969" y="1077" href="#P3"></use><use x="879" y="1368" href="#P2"></use><use x="991" y="1503" href="#P12"></use><use x="946" y="1626" href="#P5"></use><use x="1004" y="1793" href="#P7"></use><use x="954" y="2045" href="#P8"></use><use x="870" y="2149" href="#P4"></use><use x="894" y="2398" href="#P2"></use><use x="966" y="2660" href="#P2"></use><use x="956" y="2713" href="#P1"></use><use x="851" y="3046" href="#P2"></use><use x="886" y="3149" href="#P4"></use><use x="921" y="3412" href="#P6"></use><use x="872" y="3450" href="#P0"></use><use x="982" y="3765" href="#P10"></use><use x="875" y="3927" href="#P12"></use><use x="941" y="4033" href="#P8"></use><use x="947" y="4285" href="#P11"></use><use x="907" y="4454" href="#P11"></use><use x="972" y="4567" href="#P10"></use><use x="973" y="4764" href="#P12"></use><use x="1023" y="4967" href="#P11"></use><use x="943" y="5198" href="#P11"></use><use x="1085" y="-114" href="#P8"></use><use x="1117" y="-42" href="#P2"></use><use x="1041" y="225" href="#P5"></use><use x="1064" y="403" href="#P4"></use><use x="1034" y="565" href="#P0"></use><use x="1087" y="848" href="#P12"></use><use x="1168" y="928" href="#P5"></use><use x="1094" y="1102" href="#P3"></use><use x="1040" y="1300" href="#P13"></use><use x="1174" y="1562" href="#P12"></use><use x="1101" y="1759" href="#P12"></use><use x="1100" y="1768" href="#P5"></use><use x="1085" y="1980" href="#P1"></use><use x="1076" y="2297" href="#P13"></use><use x="1139" y="2481" href="#P5"></use><use x="1104" y="2670" href="#P12"></use><use x="1114" y="2727" href="#P7"></use><use x="1216" y="3027" href="#P7"></use><use x="1183" y="3175" href="#P0"></use><use x="1082" y="3343" href="#P11"></use><use x="1052" y="3503" href="#P13"></use><use x="1167" y="3748" href="#P4"></use><use x="1217" y="3826" href="#P5"></use><use x="1081" y="4025" href="#P12"></use><use x="1126" y="4207" href="#P2"></use><use x="1086" y="4469" href="#P2"></use><use x="1039" y="4621" href="#P10"></use><use x="1216" y="4766" href="#P1"></use><use x="1136" y="5036" href="#P5"></use><use x="1177" y="5197" href="#P5"></use><use x="1218" y="-228" href="#P13"></use><use x="1366" y="30" href="#P4"></use><use x="1306" y="219" href="#P2"></use><use x="1393" y="482" href="#P6"></use><use x="1370" y="627" href="#P2"></use><use x="1321" y="805" href="#P8"></use><use x="1245" y="856" href="#P8"></use><use x="1292" y="1136" href="#P13"></use><use x="1250" y="1388" href="#P5"></use><use x="1253" y="1462" href="#P11"></use><use x="1248" y="1627" href="#P7"></use><use x="1256" y="1941" href="#P8"></use><use x="1312" y="2019" href="#P6"></use><use x="1306" y="2220" href="#P5"></use><use x="1400" y="2365" href="#P13"></use><use x="1352" y="2562" href="#P3"></use><use x="1396" y="2795" href="#P1"></use><use x="1267" y="2989" href="#P11"></use><use x="1372" y="3180" href="#P3"></use><use x="1299" y="3326" href="#P8"></use><use x="1230" y="3470" href="#P2"></use><use x="1248" y="3698" href="#P9"></use><use x="1290" y="3940" href="#P9"></use><use x="1323" y="4000" href="#P5"></use><use x="1363" y="4277" href="#P3"></use><use x="1231" y="4407" href="#P13"></use><use x="1282" y="4668" href="#P13"></use><use x="1373" y="4758" href="#P10"></use><use x="1228" y="5057" href="#P1"></use><use x="1275" y="5101" href="#P12"></use><use x="1404" y="-147" href="#P6"></use><use x="1546" y="10" href="#P4"></use><use x="1453" y="270" href="#P3"></use><use x="1407" y="381" href="#P9"></use><use x="1477" y="611" href="#P4"></use><use x="1567" y="746" href="#P7"></use><use x="1529" y="862" href="#P10"></use><use x="1525" y="1123" href="#P5"></use><use x="1481" y="1339" href="#P1"></use><use x="1525" y="1420" href="#P10"></use><use x="1534" y="1709" href="#P13"></use><use x="1461" y="1933" href="#P3"></use><use x="1450" y="2001" href="#P2"></use><use x="1499" y="2187" href="#P8"></use><use x="1551" y="2370" href="#P8"></use><use x="1403" y="2503" href="#P9"></use><use x="1552" y="2867" href="#P11"></use><use x="1555" y="2959" href="#P3"></use><use x="1521" y="3053" href="#P3"></use><use x="1404" y="3350" href="#P9"></use><use x="1413" y="3492" href="#P12"></use><use x="1416" y="3703" href="#P7"></use><use x="1472" y="3895" href="#P13"></use><use x="1544" y="4121" href="#P5"></use><use x="1401" y="4263" href="#P3"></use><use x="1490" y="4382" href="#P2"></use><use x="1455" y="4598" href="#P10"></use><use x="1461" y="4872" href="#P4"></use><use x="1487" y="4982" href="#P5"></use><use x="1581" y="5149" href="#P6"></use><use x="1746" y="-235" href="#P4"></use><use x="1669" y="-59" href="#P7"></use><use x="1727" y="294" href="#P1"></use><use x="1687" y="451" href="#P9"></use><use x="1715" y="596" href="#P12"></use><use x="1641" y="800" href="#P13"></use><use x="1689" y="1020" href="#P11"></use><use x="1624" y="1078" href="#P8"></use><use x="1634" y="1347" href="#P5"></use><use x="1591" y="1559" href="#P5"></use><use x="1644" y="1676" href="#P10"></use><use x="1648" y="1887" href="#P12"></use><use x="1587" y="2012" href="#P9"></use><use x="1594" y="2304" href="#P7"></use><use x="1720" y="2473" href="#P5"></use><use x="1727" y="2666" href="#P9"></use><use x="1761" y="2860" href="#P3"></use><use x="1753" y="2880" href="#P6"></use><use x="1756" y="3131" href="#P8"></use><use x="1607" y="3334" href="#P2"></use><use x="1764" y="3422" href="#P3"></use><use x="1619" y="3665" href="#P11"></use><use x="1651" y="3807" href="#P0"></use><use x="1749" y="4073" href="#P7"></use><use x="1697" y="4256" href="#P5"></use><use x="1703" y="4513" href="#P0"></use><use x="1599" y="4576" href="#P0"></use><use x="1656" y="4855" href="#P2"></use><use x="1730" y="4910" href="#P8"></use><use x="1596" y="5183" href="#P12"></use><use x="1882" y="-182" href="#P6"></use><use x="1770" y="81" href="#P3"></use><use x="1837" y="269" href="#P7"></use><use x="1941" y="326" href="#P12"></use><use x="1927" y="576" href="#P11"></use><use x="1815" y="816" href="#P4"></use><use x="1862" y="913" href="#P0"></use><use x="1912" y="1073" href="#P4"></use><use x="1801" y="1345" href="#P1"></use><use x="1772" y="1485" href="#P0"></use><use x="1847" y="1705" href="#P10"></use><use x="1936" y="1908" href="#P9"></use><use x="1795" y="1970" href="#P6"></use><use x="1896" y="2178" href="#P7"></use><use x="1932" y="2424" href="#P12"></use><use x="1803" y="2610" href="#P10"></use><use x="1772" y="2833" href="#P7"></use><use x="1837" y="3001" href="#P1"></use><use x="1893" y="3051" href="#P6"></use><use x="1844" y="3259" href="#P3"></use><use x="1774" y="3439" href="#P7"></use><use x="1915" y="3742" href="#P10"></use><use x="1848" y="3913" href="#P10"></use><use x="1833" y="3984" href="#P1"></use><use x="1922" y="4333" href="#P8"></use><use x="1815" y="4506" href="#P13"></use><use x="1769" y="4541" href="#P5"></use><use x="1775" y="4852" href="#P2"></use><use x="1803" y="4897" href="#P7"></use><use x="1833" y="5101" href="#P11"></use><use x="2109" y="-110" href="#P6"></use><use x="1999" y="79" href="#P0"></use><use x="2134" y="190" href="#P13"></use><use x="2105" y="466" href="#P7"></use><use x="2008" y="622" href="#P8"></use><use x="1953" y="772" href="#P7"></use><use x="2020" y="963" href="#P3"></use><use x="2003" y="1201" href="#P4"></use><use x="1971" y="1381" href="#P7"></use><use x="2025" y="1438" href="#P8"></use><use x="1986" y="1737" href="#P12"></use><use x="1991" y="1769" href="#P4"></use><use x="1979" y="2119" href="#P9"></use><use x="2118" y="2241" href="#P8"></use><use x="2085" y="2459" href="#P6"></use><use x="1960" y="2564" href="#P1"></use><use x="1972" y="2774" href="#P4"></use><use x="2017" y="2927" href="#P11"></use><use x="1984" y="3095" href="#P3"></use><use x="2055" y="3310" href="#P2"></use><use x="2132" y="3459" href="#P3"></use><use x="1999" y="3708" href="#P11"></use><use x="2033" y="3939" href="#P10"></use><use x="1991" y="4068" href="#P11"></use><use x="2009" y="4161" href="#P9"></use><use x="2107" y="4461" href="#P1"></use><use x="2065" y="4546" href="#P10"></use><use x="2094" y="4865" href="#P3"></use><use x="2093" y="4994" href="#P3"></use><use x="2132" y="5185" href="#P4"></use><use x="2180" y="-236" href="#P8"></use><use x="2205" y="-1" href="#P9"></use><use x="2238" y="145" href="#P12"></use><use x="2175" y="322" href="#P9"></use><use x="2165" y="571" href="#P2"></use><use x="2313" y="801" href="#P5"></use><use x="2240" y="936" href="#P4"></use><use x="2171" y="1169" href="#P7"></use><use x="2215" y="1241" href="#P4"></use><use x="2233" y="1579" href="#P10"></use><use x="2265" y="1677" href="#P0"></use><use x="2315" y="1777" href="#P5"></use><use x="2140" y="2047" href="#P13"></use><use x="2156" y="2175" href="#P1"></use><use x="2232" y="2429" href="#P6"></use><use x="2226" y="2664" href="#P8"></use><use x="2174" y="2716" href="#P1"></use><use x="2294" y="2902" href="#P8"></use><use x="2257" y="3225" href="#P2"></use><use x="2303" y="3375" href="#P7"></use><use x="2137" y="3460" href="#P2"></use><use x="2221" y="3757" href="#P7"></use><use x="2241" y="3831" href="#P12"></use><use x="2239" y="4086" href="#P13"></use><use x="2292" y="4298" href="#P12"></use><use x="2211" y="4514" href="#P7"></use><use x="2313" y="4581" href="#P2"></use><use x="2193" y="4833" href="#P8"></use><use x="2215" y="4890" href="#P2"></use><use x="2285" y="5225" href="#P11"></use><use x="2428" y="-155" href="#P11"></use><use x="2405" y="-67" href="#P8"></use><use x="2470" y="272" href="#P10"></use><use x="2383" y="407" href="#P9"></use><use x="2487" y="659" href="#P10"></use><use x="2335" y="670" href="#P12"></use><use x="2420" y="1019" href="#P2"></use><use x="2378" y="1174" href="#P6"></use><use x="2467" y="1314" href="#P9"></use><use x="2392" y="1451" href="#P8"></use><use x="2477" y="1706" href="#P3"></use><use x="2404" y="1928" href="#P6"></use><use x="2348" y="2114" href="#P4"></use><use x="2464" y="2191" href="#P6"></use><use x="2447" y="2402" href="#P0"></use><use x="2433" y="2614" href="#P11"></use><use x="2318" y="2753" href="#P6"></use><use x="2402" y="2963" href="#P10"></use><use x="2447" y="3180" href="#P8"></use><use x="2325" y="3329" href="#P11"></use><use x="2428" y="3518" href="#P0"></use><use x="2469" y="3774" href="#P5"></use><use x="2404" y="3906" href="#P0"></use><use x="2342" y="3975" href="#P7"></use><use x="2488" y="4216" href="#P4"></use><use x="2465" y="4489" href="#P9"></use><use x="2399" y="4628" href="#P13"></use><use x="2482" y="4826" href="#P1"></use><use x="2336" y="4886" href="#P3"></use><use x="2342" y="5094" href="#P5"></use><use x="2539" y="-178" href="#P8"></use><use x="2632" y="-24" href="#P12"></use><use x="2521" y="264" href="#P8"></use><use x="2668" y="446" href="#P10"></use><use x="2538" y="537" href="#P9"></use><use x="2669" y="711" href="#P13"></use><use x="2579" y="853" href="#P6"></use><use x="2628" y="1213" href="#P13"></use><use x="2672" y="1226" href="#P10"></use><use x="2591" y="1444" href="#P13"></use><use x="2593" y="1626" href="#P3"></use><use x="2545" y="1899" href="#P4"></use><use x="2537" y="2017" href="#P3"></use><use x="2518" y="2183" href="#P5"></use><use x="2521" y="2483" href="#P11"></use><use x="2585" y="2682" href="#P6"></use><use x="2588" y="2774" href="#P0"></use><use x="2571" y="2987" href="#P13"></use><use x="2654" y="3090" href="#P10"></use><use x="2651" y="3269" href="#P12"></use><use x="2534" y="3586" href="#P1"></use><use x="2533" y="3716" href="#P12"></use><use x="2588" y="3912" href="#P13"></use><use x="2598" y="4048" href="#P4"></use><use x="2566" y="4253" href="#P9"></use><use x="2668" y="4415" href="#P9"></use><use x="2500" y="4627" href="#P6"></use><use x="2585" y="4781" href="#P10"></use><use x="2541" y="5050" href="#P10"></use><use x="2608" y="5096" href="#P11"></use><use x="2722" y="-106" href="#P2"></use><use x="2856" y="97" href="#P8"></use><use x="2708" y="200" href="#P2"></use><use x="2703" y="424" href="#P8"></use><use x="2836" y="665" href="#P5"></use><use x="2857" y="710" href="#P6"></use><use x="2753" y="962" href="#P4"></use><use x="2766" y="1127" href="#P9"></use><use x="2722" y="1383" href="#P4"></use><use x="2765" y="1439" href="#P1"></use><use x="2726" y="1742" href="#P11"></use><use x="2727" y="1835" href="#P3"></use><use x="2734" y="1954" href="#P6"></use><use x="2705" y="2252" href="#P5"></use><use x="2767" y="2458" href="#P7"></use><use x="2738" y="2670" href="#P13"></use><use x="2743" y="2728" href="#P2"></use><use x="2751" y="3006" href="#P8"></use><use x="2760" y="3120" href="#P5"></use><use x="2795" y="3293" href="#P5"></use><use x="2731" y="3582" href="#P2"></use><use x="2839" y="3714" href="#P10"></use><use x="2827" y="3853" href="#P13"></use><use x="2684" y="4093" href="#P4"></use><use x="2832" y="4169" href="#P2"></use><use x="2742" y="4430" href="#P12"></use><use x="2745" y="4689" href="#P3"></use><use x="2844" y="4850" href="#P11"></use><use x="2814" y="4973" href="#P7"></use><use x="2805" y="5249" href="#P7"></use><use x="2889" y="-92" href="#P10"></use><use x="3033" y="-13" href="#P11"></use><use x="3033" y="129" href="#P7"></use><use x="3012" y="475" href="#P12"></use><use x="2989" y="546" href="#P7"></use><use x="3027" y="671" href="#P9"></use><use x="2867" y="882" href="#P13"></use><use x="2987" y="1180" href="#P1"></use><use x="2915" y="1339" href="#P7"></use><use x="2892" y="1523" href="#P3"></use><use x="3009" y="1687" href="#P4"></use><use x="2879" y="1930" href="#P0"></use><use x="2984" y="2099" href="#P6"></use><use x="2973" y="2256" href="#P1"></use><use x="2952" y="2415" href="#P13"></use><use x="3037" y="2573" href="#P4"></use><use x="2973" y="2813" href="#P3"></use><use x="2941" y="2866" href="#P0"></use><use x="2967" y="3215" href="#P8"></use><use x="3027" y="3377" href="#P3"></use><use x="3020" y="3573" href="#P3"></use><use x="2964" y="3612" href="#P8"></use><use x="3022" y="3939" href="#P10"></use><use x="2937" y="4033" href="#P5"></use><use x="2875" y="4212" href="#P5"></use><use x="2943" y="4403" href="#P9"></use><use x="2987" y="4666" href="#P11"></use><use x="2871" y="4752" href="#P5"></use><use x="3004" y="4894" href="#P0"></use><use x="2961" y="5085" href="#P5"></use><use x="3169" y="-221" href="#P4"></use><use x="3226" y="-32" href="#P7"></use><use x="3221" y="149" href="#P11"></use><use x="3182" y="343" href="#P9"></use><use x="3229" y="634" href="#P4"></use><use x="3232" y="755" href="#P3"></use><use x="3177" y="869" href="#P12"></use><use x="3083" y="1178" href="#P8"></use><use x="3176" y="1318" href="#P12"></use><use x="3143" y="1412" href="#P1"></use><use x="3225" y="1765" href="#P11"></use><use x="3111" y="1920" href="#P1"></use><use x="3141" y="1998" href="#P10"></use><use x="3210" y="2168" href="#P12"></use><use x="3107" y="2369" href="#P3"></use><use x="3123" y="2584" href="#P0"></use><use x="3204" y="2731" href="#P2"></use><use x="3069" y="2930" href="#P6"></use><use x="3054" y="3150" href="#P8"></use><use x="3102" y="3385" href="#P10"></use><use x="3133" y="3501" href="#P5"></use><use x="3201" y="3748" href="#P9"></use><use x="3136" y="3918" href="#P8"></use><use x="3064" y="3971" href="#P12"></use><use x="3141" y="4290" href="#P2"></use><use x="3105" y="4390" href="#P6"></use><use x="3181" y="4608" href="#P0"></use><use x="3141" y="4811" href="#P9"></use><use x="3105" y="5040" href="#P4"></use><use x="3052" y="5161" href="#P1"></use><use x="3302" y="-150" href="#P6"></use><use x="3399" y="106" href="#P9"></use><use x="3287" y="212" href="#P9"></use><use x="3239" y="316" href="#P8"></use><use x="3301" y="516" href="#P9"></use><use x="3381" y="761" href="#P3"></use><use x="3306" y="854" href="#P10"></use><use x="3405" y="1096" href="#P13"></use><use x="3362" y="1394" href="#P10"></use><use x="3271" y="1473" href="#P5"></use><use x="3354" y="1655" href="#P11"></use><use x="3354" y="1840" href="#P3"></use><use x="3383" y="1959" href="#P6"></use><use x="3281" y="2228" href="#P11"></use><use x="3365" y="2339" href="#P1"></use><use x="3408" y="2566" href="#P3"></use><use x="3290" y="2784" href="#P3"></use><use x="3306" y="2984" href="#P9"></use><use x="3278" y="3231" href="#P10"></use><use x="3306" y="3379" href="#P3"></use><use x="3300" y="3467" href="#P2"></use><use x="3278" y="3622" href="#P4"></use><use x="3302" y="3905" href="#P4"></use><use x="3372" y="4128" href="#P8"></use><use x="3356" y="4237" href="#P5"></use><use x="3308" y="4412" href="#P12"></use><use x="3366" y="4698" href="#P4"></use><use x="3308" y="4812" href="#P5"></use><use x="3286" y="5029" href="#P8"></use><use x="3280" y="5120" href="#P1"></use><use x="3454" y="-156" href="#P11"></use><use x="3462" y="-11" href="#P2"></use><use x="3582" y="287" href="#P9"></use><use x="3518" y="325" href="#P3"></use><use x="3435" y="516" href="#P9"></use><use x="3499" y="796" href="#P8"></use><use x="3433" y="1024" href="#P13"></use><use x="3524" y="1183" href="#P13"></use><use x="3451" y="1246" href="#P0"></use><use x="3484" y="1457" href="#P8"></use><use x="3578" y="1735" href="#P3"></use><use x="3461" y="1784" href="#P13"></use><use x="3494" y="2023" href="#P12"></use><use x="3490" y="2262" href="#P9"></use><use x="3487" y="2428" href="#P12"></use><use x="3599" y="2518" href="#P12"></use><use x="3422" y="2799" href="#P1"></use><use x="3473" y="2878" href="#P2"></use><use x="3534" y="3056" href="#P10"></use><use x="3484" y="3311" href="#P3"></use><use x="3421" y="3559" href="#P9"></use><use x="3593" y="3649" href="#P1"></use><use x="3443" y="3883" href="#P3"></use><use x="3440" y="4002" href="#P12"></use><use x="3450" y="4318" href="#P9"></use><use x="3485" y="4368" href="#P11"></use><use x="3454" y="4662" href="#P5"></use><use x="3595" y="4864" href="#P1"></use><use x="3418" y="4983" href="#P4"></use><use x="3551" y="5240" href="#P5"></use><use x="3641" y="-191" href="#P10"></use><use x="3617" y="-34" href="#P4"></use><use x="3704" y="185" href="#P0"></use><use x="3734" y="324" href="#P0"></use><use x="3654" y="636" href="#P7"></use><use x="3712" y="835" href="#P11"></use><use x="3705" y="898" href="#P3"></use><use x="3697" y="1153" href="#P11"></use><use x="3606" y="1350" href="#P13"></use><use x="3743" y="1536" href="#P12"></use><use x="3701" y="1612" href="#P6"></use><use x="3679" y="1792" href="#P10"></use><use x="3716" y="2055" href="#P4"></use><use x="3629" y="2213" href="#P10"></use><use x="3776" y="2444" href="#P4"></use><use x="3697" y="2572" href="#P7"></use><use x="3718" y="2839" href="#P4"></use><use x="3699" y="2961" href="#P10"></use><use x="3608" y="3188" href="#P2"></use><use x="3759" y="3319" href="#P11"></use><use x="3727" y="3427" href="#P3"></use><use x="3686" y="3619" href="#P4"></use><use x="3610" y="3851" href="#P13"></use><use x="3761" y="4069" href="#P12"></use><use x="3690" y="4181" href="#P10"></use><use x="3743" y="4515" href="#P7"></use><use x="3723" y="4525" href="#P12"></use><use x="3634" y="4878" href="#P13"></use><use x="3612" y="4992" href="#P5"></use><use x="3767" y="5206" href="#P3"></use><use x="3816" y="-106" href="#P3"></use><use x="3904" y="36" href="#P2"></use><use x="3956" y="123" href="#P12"></use><use x="3809" y="429" href="#P10"></use><use x="3936" y="665" href="#P13"></use><use x="3793" y="799" href="#P5"></use><use x="3916" y="945" href="#P7"></use><use x="3816" y="1190" href="#P11"></use><use x="3929" y="1340" href="#P9"></use><use x="3896" y="1504" href="#P3"></use><use x="3805" y="1615" href="#P8"></use><use x="3901" y="1845" href="#P7"></use><use x="3827" y="2009" href="#P9"></use><use x="3810" y="2189" href="#P10"></use><use x="3895" y="2364" href="#P8"></use><use x="3803" y="2606" href="#P10"></use><use x="3937" y="2799" href="#P0"></use><use x="3865" y="3025" href="#P9"></use><use x="3816" y="3223" href="#P9"></use><use x="3850" y="3251" href="#P13"></use><use x="3851" y="3521" href="#P4"></use><use x="3818" y="3664" href="#P5"></use><use x="3824" y="3890" href="#P7"></use><use x="3871" y="4031" href="#P2"></use><use x="3811" y="4330" href="#P7"></use><use x="3792" y="4463" href="#P13"></use><use x="3867" y="4622" href="#P1"></use><use x="3948" y="4873" href="#P5"></use><use x="3825" y="5055" href="#P8"></use><use x="3849" y="5105" href="#P12"></use><use x="4030" y="-69" href="#P8"></use><use x="3979" y="-50" href="#P4"></use><use x="3996" y="142" href="#P0"></use><use x="3970" y="430" href="#P10"></use><use x="4055" y="498" href="#P0"></use><use x="4003" y="823" href="#P4"></use><use x="4091" y="1009" href="#P7"></use><use x="4141" y="1112" href="#P11"></use><use x="4110" y="1336" href="#P13"></use><use x="4147" y="1492" href="#P3"></use><use x="3971" y="1748" href="#P0"></use><use x="4141" y="1838" href="#P5"></use><use x="3998" y="2126" href="#P1"></use><use x="4113" y="2285" href="#P11"></use><use x="4034" y="2340" href="#P11"></use><use x="4004" y="2512" href="#P2"></use><use x="4087" y="2748" href="#P13"></use><use x="3975" y="2890" href="#P6"></use><use x="4095" y="3223" href="#P11"></use><use x="3983" y="3259" href="#P7"></use><use x="4071" y="3547" href="#P7"></use><use x="4017" y="3783" href="#P0"></use><use x="4087" y="3798" href="#P6"></use><use x="4113" y="3997" href="#P4"></use><use x="4062" y="4328" href="#P4"></use><use x="4019" y="4459" href="#P5"></use><use x="3977" y="4549" href="#P7"></use><use x="4069" y="4789" href="#P10"></use><use x="4130" y="4967" href="#P11"></use><use x="4044" y="5201" href="#P9"></use><use x="4250" y="-104" href="#P2"></use><use x="4317" y="56" href="#P2"></use><use x="4151" y="155" href="#P8"></use><use x="4170" y="326" href="#P8"></use><use x="4256" y="495" href="#P5"></use><use x="4289" y="680" href="#P5"></use><use x="4216" y="961" href="#P11"></use><use x="4212" y="1193" href="#P2"></use><use x="4255" y="1255" href="#P3"></use><use x="4262" y="1436" href="#P2"></use><use x="4267" y="1602" href="#P8"></use><use x="4248" y="1891" href="#P6"></use><use x="4289" y="1966" href="#P0"></use><use x="4242" y="2213" href="#P5"></use><use x="4331" y="2378" href="#P4"></use><use x="4183" y="2550" href="#P6"></use><use x="4263" y="2752" href="#P6"></use><use x="4293" y="3034" href="#P8"></use><use x="4321" y="3115" href="#P0"></use><use x="4288" y="3313" href="#P10"></use><use x="4302" y="3525" href="#P7"></use><use x="4190" y="3746" href="#P10"></use><use x="4270" y="3908" href="#P5"></use><use x="4157" y="4092" href="#P9"></use><use x="4240" y="4203" href="#P5"></use><use x="4308" y="4436" href="#P12"></use><use x="4233" y="4639" href="#P9"></use><use x="4246" y="4725" href="#P7"></use><use x="4263" y="5063" href="#P11"></use><use x="4271" y="5118" href="#P1"></use><use x="4407" y="-231" href="#P10"></use><use x="4380" y="24" href="#P3"></use><use x="4447" y="282" href="#P7"></use><use x="4404" y="421" href="#P0"></use><use x="4391" y="584" href="#P13"></use><use x="4343" y="690" href="#P13"></use><use x="4515" y="1028" href="#P3"></use><use x="4419" y="1083" href="#P8"></use><use x="4475" y="1324" href="#P1"></use><use x="4355" y="1434" href="#P11"></use><use x="4379" y="1685" href="#P9"></use><use x="4482" y="1893" href="#P2"></use><use x="4364" y="2002" href="#P12"></use><use x="4401" y="2165" href="#P1"></use><use x="4400" y="2466" href="#P11"></use><use x="4365" y="2522" href="#P10"></use><use x="4427" y="2704" href="#P12"></use><use x="4392" y="2871" href="#P6"></use><use x="4422" y="3121" href="#P9"></use><use x="4487" y="3352" href="#P8"></use><use x="4448" y="3535" href="#P13"></use><use x="4512" y="3740" href="#P6"></use><use x="4339" y="3821" href="#P2"></use><use x="4483" y="3985" href="#P11"></use><use x="4417" y="4218" href="#P5"></use><use x="4402" y="4382" href="#P8"></use><use x="4514" y="4585" href="#P8"></use><use x="4483" y="4709" href="#P11"></use><use x="4457" y="4925" href="#P7"></use><use x="4403" y="5217" href="#P10"></use><use x="4535" y="-239" href="#P7"></use><use x="4649" y="-66" href="#P7"></use><use x="4550" y="159" href="#P13"></use><use x="4665" y="426" href="#P0"></use><use x="4521" y="564" href="#P12"></use><use x="4538" y="677" href="#P13"></use><use x="4529" y="859" href="#P10"></use><use x="4690" y="1185" href="#P9"></use><use x="4578" y="1377" href="#P13"></use><use x="4691" y="1474" href="#P4"></use><use x="4609" y="1734" href="#P2"></use><use x="4531" y="1784" href="#P7"></use><use x="4557" y="1961" href="#P3"></use><use x="4662" y="2209" href="#P4"></use><use x="4526" y="2427" href="#P8"></use><use x="4645" y="2597" href="#P12"></use><use x="4671" y="2784" href="#P7"></use><use x="4593" y="2955" href="#P11"></use><use x="4621" y="3171" href="#P12"></use><use x="4697" y="3417" href="#P9"></use><use x="4610" y="3528" href="#P6"></use><use x="4631" y="3658" href="#P7"></use><use x="4517" y="3917" href="#P6"></use><use x="4676" y="4128" href="#P10"></use><use x="4662" y="4213" href="#P8"></use><use x="4635" y="4373" href="#P8"></use><use x="4542" y="4570" href="#P12"></use><use x="4553" y="4754" href="#P11"></use><use x="4682" y="4977" href="#P5"></use><use x="4539" y="5230" href="#P2"></use><use x="4733" y="-181" href="#P4"></use><use x="4718" y="-52" href="#P9"></use><use x="4766" y="138" href="#P10"></use><use x="4713" y="307" href="#P1"></use><use x="4791" y="540" href="#P10"></use><use x="4731" y="691" href="#P5"></use><use x="4805" y="1007" href="#P3"></use><use x="4852" y="1142" href="#P11"></use><use x="4717" y="1301" href="#P11"></use><use x="4732" y="1408" href="#P10"></use><use x="4833" y="1701" href="#P5"></use><use x="4843" y="1829" href="#P11"></use><use x="4855" y="2066" href="#P12"></use><use x="4805" y="2163" href="#P6"></use><use x="4875" y="2470" href="#P7"></use><use x="4858" y="2570" href="#P12"></use><use x="4800" y="2688" href="#P13"></use><use x="4703" y="2904" href="#P13"></use><use x="4740" y="3179" href="#P5"></use><use x="4704" y="3403" href="#P11"></use><use x="4831" y="3440" href="#P10"></use><use x="4796" y="3700" href="#P0"></use><use x="4716" y="3939" href="#P8"></use><use x="4737" y="4102" href="#P7"></use><use x="4852" y="4192" href="#P1"></use><use x="4705" y="4513" href="#P3"></use><use x="4837" y="4621" href="#P1"></use><use x="4744" y="4850" href="#P13"></use><use x="4737" y="5041" href="#P1"></use><use x="4767" y="5074" href="#P1"></use><use x="4896" y="-211" href="#P1"></use><use x="4915" y="-11" href="#P2"></use><use x="4885" y="125" href="#P6"></use><use x="4887" y="461" href="#P7"></use><use x="4969" y="656" href="#P8"></use><use x="4991" y="809" href="#P10"></use><use x="5020" y="900" href="#P7"></use><use x="4967" y="1198" href="#P13"></use><use x="4937" y="1309" href="#P11"></use><use x="4919" y="1505" href="#P5"></use><use x="4986" y="1655" href="#P11"></use><use x="5065" y="1825" href="#P5"></use><use x="5025" y="2048" href="#P6"></use><use x="5054" y="2133" href="#P12"></use><use x="5064" y="2353" href="#P6"></use><use x="4986" y="2595" href="#P11"></use><use x="4922" y="2762" href="#P2"></use><use x="5036" y="2903" href="#P7"></use><use x="4960" y="3091" href="#P11"></use><use x="4945" y="3380" href="#P2"></use><use x="5000" y="3461" href="#P8"></use><use x="4954" y="3621" href="#P7"></use><use x="4985" y="3904" href="#P2"></use><use x="5031" y="3981" href="#P7"></use><use x="4965" y="4278" href="#P7"></use><use x="4934" y="4411" href="#P10"></use><use x="5024" y="4626" href="#P7"></use><use x="5001" y="4733" href="#P5"></use><use x="5008" y="4938" href="#P6"></use><use x="4973" y="5124" href="#P12"></use><use x="5186" y="-238" href="#P11"></use><use x="5173" y="-65" href="#P9"></use><use x="5217" y="228" href="#P13"></use><use x="5228" y="348" href="#P11"></use><use x="5189" y="637" href="#P12"></use><use x="5204" y="849" href="#P7"></use><use x="5176" y="998" href="#P5"></use><use x="5137" y="1079" href="#P3"></use><use x="5231" y="1267" href="#P3"></use><use x="5090" y="1483" href="#P11"></use><use x="5101" y="1601" href="#P0"></use><use x="5097" y="1791" href="#P9"></use><use x="5230" y="1973" href="#P9"></use><use x="5105" y="2263" href="#P7"></use><use x="5206" y="2399" href="#P7"></use><use x="5090" y="2552" href="#P3"></use><use x="5228" y="2826" href="#P7"></use><use x="5204" y="2915" href="#P2"></use><use x="5174" y="3168" href="#P10"></use><use x="5098" y="3326" href="#P11"></use><use x="5228" y="3507" href="#P13"></use><use x="5196" y="3657" href="#P3"></use><use x="5185" y="3896" href="#P10"></use><use x="5080" y="3970" href="#P0"></use><use x="5243" y="4219" href="#P5"></use><use x="5133" y="4440" href="#P12"></use><use x="5149" y="4568" href="#P0"></use><use x="5140" y="4811" href="#P6"></use><use x="5203" y="4884" href="#P5"></use><use x="5072" y="5068" href="#P0"></use></g></svg>